<svg width="587" height="652" viewBox="0 0 587 652" fill="none" xmlns="http://www.w3.org/2000/svg">
<path d="M39 241.5V483H66.5H94V273.3C94 138.9 94.3 63.9 95 64.6C95.5 65.1 138.3 158.4 190.1 272C241.9 385.6 284.7 479.5 285.3 480.7L286.3 483H328.2H370V241.5V-7.19726e-06H343H316V206.4C316 325.4 315.6 413.1 315.1 413.4C314.6 413.7 303.6 390.7 290.7 362.2C267.6 311.6 158.6 72.2 136.8 24.2L125.8 -7.19726e-06H82.4H39V241.5Z" fill="#0164A5"/>
<path d="M39.3 527.7C38.3 528.1 38 537.8 38 571.4C38 595.2 38.2 614.9 38.4 615.1C38.6 615.3 42.7 615.4 47.4 615.2L56 614.9V593.4C56 581.5 56.4 572.1 56.9 572.4C57.3 572.7 65.3 582.6 74.5 594.5C89.4 613.5 91.6 616 94.1 616H97V572V528H88H79V549.7V571.3L61.4 549.2C44.6 528 42.8 526.2 39.3 527.7Z" fill="black"/>
<path d="M132.7 528.4C117.7 533.8 110.2 546.7 109.3 568.5C108.7 582.3 109.7 588.8 113.9 597.6C117.7 605.6 122 610.3 128.2 613.4C132.6 615.6 134.8 616 141.9 616C152.4 616 158.5 613.5 164.7 606.8C172.8 597.9 176 588 176 571.5C176 549.4 168.3 534.2 154.3 529C148 526.7 138.4 526.4 132.7 528.4ZM148.1 544.6C150.2 545.6 152 548 153.8 551.8C156.3 557.1 156.5 558.4 156.5 571.5C156.5 587.3 155.2 592.5 149.9 597.6C145.6 601.7 139.4 601.7 135.1 597.6C129.8 592.5 128.5 587.3 128.5 571.5C128.5 558.8 128.7 557 130.9 552.1C134.7 543.8 141.2 541 148.1 544.6Z" fill="black"/>
<path d="M269.9 528.3C254.1 534.2 246 549.1 246 572C246 588.4 250.1 600.3 258.6 608.5C264.9 614.7 269.8 616.3 280.7 615.8C290.8 615.4 294.9 613.8 301 607.9C309 600.1 313.3 587.4 313.3 571.5C313.3 551.2 306.3 536.3 293.7 529.8C288.4 527.1 275.4 526.3 269.9 528.3ZM285.6 544.9C292.1 548.9 295.7 563.7 294 579.2C292.4 593.3 287.4 600.5 279.3 600.5C275.3 600.5 274.4 600.1 271.5 596.7C266.8 591.3 265.5 585.6 265.5 570.5C265.5 558.3 265.7 557.2 268.3 551.7C272.5 543.3 278.8 540.8 285.6 544.9Z" fill="black"/>
<path d="M184.6 547.7C188.1 558.6 194.4 578.3 198.7 591.5L206.6 615.5H211.5H216.4L220 604C222 597.7 228.4 578 234.2 560.2L244.8 528H235H225.3L219.1 551.2C215.7 564 212.6 575.4 212.1 576.4C211.6 577.8 209.5 571.4 205 554.9C201.6 542 198.5 530.7 198.2 529.7C197.8 528.2 196.5 528 188 528H178.2L184.6 547.7Z" fill="black"/>
<path d="M325 571.5V615H334H343V598.5V582H354.5H366V573.5V565H354.5H343V555V545H356.5H370V536.5V528H347.5H325V571.5Z" fill="black"/>
<path d="M380 571.5V615H401C412.6 615 422.3 615.1 422.8 615.2C423.2 615.4 423.6 611.8 423.8 607.2L424.1 599H411H398V563.5V528H389H380V571.5Z" fill="black"/>
<path d="M433 571.7V615.5L455.5 615.2L478 614.9V607V599H464.5H451V589V579H463H475V571V563H463H451V554V545H464.5H478V536.5V528H455.5H433V571.7Z" fill="black"/>
<path d="M485 528.3C485 528.6 489.7 538.5 495.5 550.4L506 572.1L495.5 593C489.7 604.6 485 614.3 485 614.7C485 615.2 489.4 615.4 494.8 615.2L504.6 614.9L510.5 601.4C513.7 594 516.6 588 516.9 588C517.2 588 520.2 594.2 523.5 601.6L529.5 615.2L539.3 615.3C544.6 615.4 549 615.2 549 614.7C549 614.3 544.3 604.4 538.6 592.6L528.3 571.3L538.6 550C544.3 538.3 549 528.5 549 528.3C549 528.2 544.6 528 539.2 528H529.3L523.5 541.5C520.3 549 517.3 554.7 516.9 554.3C516.4 553.8 513.6 547.9 510.6 541L505.1 528.5L495.1 528.2C489.5 528.1 485 528.1 485 528.3Z" fill="black"/>
</svg>
